<?xml version="1.0" encoding="utf-8" standalone="yes"?>
<!DOCTYPE svg PUBLIC "-//W3C//DTD SVG 1.1//EN" "http://www.w3.org/Graphics/SVG/1.1/DTD/svg11.dtd">
<svg width="578" height="362" viewBox="0 0 578 362" style="fill:none;stroke:none;fill-rule:evenodd;clip-rule:evenodd;stroke-linecap:round;stroke-linejoin:round;stroke-miterlimit:1.5;" version="1.1" xmlns="http://www.w3.org/2000/svg" xmlns:xlink="http://www.w3.org/1999/xlink"><style class="text-font-style fontImports" data-font-family="Roboto">@import url('https://fonts.googleapis.com/css2?family=Roboto:wght@400;700&amp;display=block');</style><rect id="" x="0" y="0" width="578" height="362" style="fill: #ffffff;"></rect><g id="items" style="isolation: isolate"><g id="blend" style="mix-blend-mode: normal"><g id="g-root-tf_8x4gsb6zij9c-fill" data-item-order="-207360" transform="translate(-9, -9)"><g id="tf_8x4gsb6zij9c-fill" stroke="none" fill="#ffffff"><g><path d="M 10 10L 586 10L 586 370L 10 370Z"></path></g></g></g><g id="g-root-5.cu_sy_qns06z6zh53j-fill" data-item-order="-31674" transform="translate(183, 130)"></g><g id="g-root-4.cu_sy_m8kz5n6zh2q0-fill" data-item-order="-31671" transform="translate(255, 141)"><g id="4.cu_sy_m8kz5n6zh2q0-fill" stroke="none" fill="#969696"><g><path d="M 34.086 22C 34.086 28.627 28.695 34 22.043 34C 15.392 34 10 28.627 10 22C 10 15.373 15.392 10 22.043 10C 28.695 10 34.086 15.373 34.086 22ZM 28 22C 28 25.314 25.314 28 22 28C 18.686 28 16 25.314 16 22C 16 18.686 18.686 16 22 16C 25.314 16 28 18.686 28 22Z"></path></g></g></g><g id="g-root-3.cu_sy_m8kz5n6zh2q1-fill" data-item-order="-31667" transform="translate(219, 162.325927734375)"><g id="3.cu_sy_m8kz5n6zh2q1-fill" stroke="none" fill="#969696"><g><path d="M 22 78.674011L 94 78.674011C 94 78.674011 73.992 28.166011 65.959 10.058011C 63.725 11.952011 61.073 12.997011 58.043 12.997011C 54.986 12.997011 52.288 11.933011 50.072 10.000011C 42.047 28.114011 22 78.674011 22 78.674011ZM 18 78.679011C 13.582 78.679011 10 82.260011 10 86.679011L 10 88.679011C 10 89.783011 10.895 90.679011 12 90.679011L 104 90.679011C 105.105 90.679011 106 89.783011 106 88.679011L 106 86.679011C 106 82.260011 102.418 78.679011 98 78.679011L 18 78.679011Z"></path></g></g></g><g id="g-root-2.right-bucket_sy_hsrh176zh3ia-fill" data-item-order="-31663" transform="translate(315, 111)"><g id="2.right-bucket_sy_hsrh176zh3ia-fill" stroke="none" fill="#de8431"><g><path d="M 10 11.8C 10 10.806 10.806 10 11.8 10L 80.2 10C 81.194 10 82 10.806 82 11.8C 82 20.747 74.747 28 65.8 28L 26.2 28C 17.253 28 10 20.747 10 11.8Z"></path></g></g></g><g id="g-root-1.left-bucket_sy_hsrh176zh3ib-fill" data-item-order="-31659" transform="translate(147, 111)"><g id="1.left-bucket_sy_hsrh176zh3ib-fill" stroke="none" fill="#1eabda"><g><path d="M 10 11.8C 10 10.806 10.806 10 11.8 10L 80.2 10C 81.194 10 82 10.806 82 11.8C 82 20.747 74.747 28 65.8 28L 26.2 28C 17.253 28 10 20.747 10 11.8Z"></path></g></g></g><g id="g-root-tx_modeldev_4o66m36zh3ik-fill" data-item-order="0" transform="translate(15, 39)"><g id="tx_modeldev_4o66m36zh3ik-fill" stroke="none" fill="#484848"><g><text style="font: 20px Roboto, sans-serif; white-space: pre;" font-size="20px" font-family="Roboto, sans-serif"><tspan x="84.38" y="34" dominant-baseline="ideographic">Model </tspan><tspan x="22.98" y="58" dominant-baseline="ideographic">Development </tspan><tspan x="85.92" y="82" dominant-baseline="ideographic">Focus</tspan></text></g></g></g><g id="g-root-man_8x4gsb6zh4b0-fill" data-item-order="0" transform="translate(159, 51)"></g><g id="g-root-sign_mbpcl76zh3wo-fill" data-item-order="0" transform="translate(327, 51)"></g><g id="g-root-tx_producti_1hit7236zh3b4-fill" data-item-order="0" transform="translate(387, 51)"><g id="tx_producti_1hit7236zh3b4-fill" stroke="none" fill="#484848"><g><text style="font: 20px Roboto, sans-serif; white-space: pre;" font-size="20px" font-family="Roboto, sans-serif"><tspan x="12" y="34" dominant-baseline="ideographic">Production </tspan><tspan x="12" y="58" dominant-baseline="ideographic">System Strength</tspan></text></g></g></g><g id="g-root-tx_python_qwinej6zh3b8-fill" data-item-order="0" transform="translate(63, 207)"><g id="tx_python_qwinej6zh3b8-fill" stroke="none" fill="#484848"><g><text style="font: 20px Roboto, sans-serif; white-space: pre;" font-size="20px" font-family="Roboto, sans-serif"><tspan x="14.88" y="34" dominant-baseline="ideographic">Python</tspan></text></g></g></g><g id="g-root-tx_java_8id76zihvs-fill" data-item-order="0" transform="translate(411, 207)"><g id="tx_java_8id76zihvs-fill" stroke="none" fill="#484848"><g><text style="font: 20px Roboto, sans-serif; white-space: pre;" font-size="20px" font-family="Roboto, sans-serif"><tspan x="12.91" y="34" dominant-baseline="ideographic">Java</tspan></text></g></g></g><g id="g-root-tx_chooseth_18f20or6zihos-fill" data-item-order="0" transform="translate(63, 279)"><g id="tx_chooseth_18f20or6zihos-fill" stroke="none" fill="#484848"><g><text style="font: 20px Roboto, sans-serif; white-space: pre;" font-size="20px" font-family="Roboto, sans-serif"><tspan x="16.93" y="34" dominant-baseline="ideographic">Choose the right language for your AI needs.</tspan></text></g></g></g><g id="g-root-tf_8x4gsb6zij9c-stroke" data-item-order="-207360" transform="translate(-9, -9)"></g><g id="g-root-5.cu_sy_qns06z6zh53j-stroke" data-item-order="-31674" transform="translate(183, 130)"><g id="5.cu_sy_qns06z6zh53j-stroke" fill="none" stroke-linecap="round" stroke-linejoin="round" stroke-miterlimit="4" stroke="#484848" stroke-width="2"><g><path d="M 178 10L 178 24.978C 178 29.395 174.42 32.976 170.003 32.978L 107 33M 10 10L 10 25.025C 10 29.444 13.582 33.025 18 33.025L 82 33.025"></path></g></g></g><g id="g-root-4.cu_sy_m8kz5n6zh2q0-stroke" data-item-order="-31671" transform="translate(255, 141)"><g id="4.cu_sy_m8kz5n6zh2q0-stroke" fill="none" stroke-linecap="round" stroke-linejoin="round" stroke-miterlimit="4" stroke="#ffffff" stroke-width="2"><g><path d="M 34.086 22C 34.086 28.627 28.695 34 22.043 34C 15.392 34 10 28.627 10 22C 10 15.373 15.392 10 22.043 10C 28.695 10 34.086 15.373 34.086 22ZM 28 22C 28 25.314 25.314 28 22 28C 18.686 28 16 25.314 16 22C 16 18.686 18.686 16 22 16C 25.314 16 28 18.686 28 22Z"></path></g></g></g><g id="g-root-3.cu_sy_m8kz5n6zh2q1-stroke" data-item-order="-31667" transform="translate(219, 162.325927734375)"><g id="3.cu_sy_m8kz5n6zh2q1-stroke" fill="none" stroke-linecap="round" stroke-linejoin="round" stroke-miterlimit="4" stroke="#ffffff" stroke-width="2"><g><path d="M 22 78.674011L 94 78.674011C 94 78.674011 73.992 28.166011 65.959 10.058011C 63.725 11.952011 61.073 12.997011 58.043 12.997011C 54.986 12.997011 52.288 11.933011 50.072 10.000011C 42.047 28.114011 22 78.674011 22 78.674011ZM 18 78.679011C 13.582 78.679011 10 82.260011 10 86.679011L 10 88.679011C 10 89.783011 10.895 90.679011 12 90.679011L 104 90.679011C 105.105 90.679011 106 89.783011 106 88.679011L 106 86.679011C 106 82.260011 102.418 78.679011 98 78.679011L 18 78.679011Z"></path></g></g><g id="3.cu_sy_m8kz5n6zh2q1-stroke" fill="none" stroke-linecap="round" stroke-linejoin="round" stroke-miterlimit="4" stroke="#ffffff" stroke-width="2"><g><path d="M 58 58.679011L 54 62.679011L 54 71.749011C 55.177 71.068011 56.543 70.679011 58 70.679011C 59.457 70.679011 60.823 71.068011 62 71.749011L 62 62.679011L 58 58.679011ZM 62 71.749011C 60.823 71.068011 59.457 70.679011 58 70.679011C 56.543 70.679011 55.177 71.068011 54 71.749011C 51.609 73.132011 50 75.718011 50 78.679011L 66 78.679011C 66 75.718011 64.391 73.132011 62 71.749011ZM 58 49.679011L 58 55.479011M 78.503 58.176011L 74.404 62.274011M 37.497 58.176011L 41.596 62.274011M 64.747 53.468011L 64.003 56.262011M 44.94 56.078011L 46.4 58.591011M 71.031 56.068011L 69.59 58.572011M 51.224 53.478011L 51.978 56.271011"></path></g></g></g><g id="g-root-2.right-bucket_sy_hsrh176zh3ia-stroke" data-item-order="-31663" transform="translate(315, 111)"><g id="2.right-bucket_sy_hsrh176zh3ia-stroke" fill="none" stroke-linecap="round" stroke-linejoin="round" stroke-miterlimit="4" stroke="#ffffff" stroke-width="2"><g><path d="M 10 11.8C 10 10.806 10.806 10 11.8 10L 80.2 10C 81.194 10 82 10.806 82 11.8C 82 20.747 74.747 28 65.8 28L 26.2 28C 17.253 28 10 20.747 10 11.8Z"></path></g></g></g><g id="g-root-1.left-bucket_sy_hsrh176zh3ib-stroke" data-item-order="-31659" transform="translate(147, 111)"><g id="1.left-bucket_sy_hsrh176zh3ib-stroke" fill="none" stroke-linecap="round" stroke-linejoin="round" stroke-miterlimit="4" stroke="#ffffff" stroke-width="2"><g><path d="M 10 11.8C 10 10.806 10.806 10 11.8 10L 80.2 10C 81.194 10 82 10.806 82 11.8C 82 20.747 74.747 28 65.8 28L 26.2 28C 17.253 28 10 20.747 10 11.8Z"></path></g></g></g><g id="g-root-tx_modeldev_4o66m36zh3ik-stroke" data-item-order="0" transform="translate(15, 39)"></g><g id="g-root-man_8x4gsb6zh4b0-stroke" data-item-order="0" transform="translate(159, 51)"><g id="man_8x4gsb6zh4b0-stroke" fill="none" stroke-linecap="round" stroke-linejoin="round" stroke-miterlimit="4" stroke="#484848" stroke-width="2"><g><path d="M 32.987999 43.764C 37.57795 46.214329 43.284012 44.589081 45.894001 40.087997L 45.894001 40.087997C 52.319809 43.26873 56.388161 49.816059 56.394001 56.986M 45.894001 40.087997L 39.299999 56.986M 50.664001 43.462002L 49.063999 53.612L 45.104 53.612L 45.088001 56.962002M 16.341999 36.190002L 29.48 36.190002M 33.681999 52.868L 26.716 45.543999L 26.716 36.200001L 19.104 36.200001L 19.104 45.554001L 12.142 52.868C 11.546909 53.632294 11.439168 54.668816 11.864348 55.539158C 12.289528 56.4095 13.173354 56.961624 14.142 56.962002L 31.676001 56.962002C 32.644646 56.961624 33.528473 56.4095 33.953651 55.539158C 34.37883 54.668816 34.271091 53.632294 33.676003 52.868ZM 16.512001 48.271999L 29.309999 48.271999M 39.982002 28.091999C 38.535484 29.174671 36.548515 29.174671 35.102001 28.092001M 40.799999 23.618C 41.020912 23.618 41.200001 23.797087 41.200001 24.018002C 41.200001 24.238914 41.020912 24.417999 40.800003 24.417999C 40.579086 24.417999 40.400002 24.238914 40.400002 24.018002C 40.400002 23.797087 40.579086 23.618 40.800003 23.618M 34.290001 23.618C 34.510914 23.618 34.690002 23.797087 34.690002 24.018002C 34.690002 24.238914 34.510914 24.417999 34.290001 24.417999C 34.069084 24.417999 33.889999 24.238914 33.889999 24.018002C 33.889999 23.797087 34.069084 23.618 34.290001 23.618M 47.301998 20.771999C 47.225609 15.436737 42.878811 11.15173 37.542999 11.15173C 32.207191 11.15173 27.86039 15.436737 27.784 20.771999L 27.784 24.026001C 27.86039 29.361263 32.207191 33.646271 37.542999 33.646271C 42.878811 33.646271 47.225609 29.361263 47.301998 24.026001ZM 47.301998 20.771999L 44.048 20.771999C 41.889999 20.771999 37.447998 21.32 34.290001 17.52C 32.66404 19.454556 30.304274 20.622475 27.780001 20.742001"></path></g></g></g><g id="g-root-sign_mbpcl76zh3wo-stroke" data-item-order="0" transform="translate(327, 51)"><g id="sign_mbpcl76zh3wo-stroke" fill="none" stroke-linecap="round" stroke-linejoin="round" stroke-miterlimit="4" stroke="#484848" stroke-width="2"><g><path d="M 24 33L 20 57M 28 11L 26 21M 44 33L 48 57M 40 11L 42 21M 34 49L 34 57M 34 35L 34 41M 34 11L 34 13M 18.860001 29.836C 18.940166 29.3538 19.357182 29.000225 19.846001 29L 48.152 29C 48.64082 29.000225 49.057835 29.3538 49.138 29.836L 50.862 40.164001C 50.942165 40.646202 51.35918 40.999775 51.848 41L 56 41C 56.552284 41 57 40.552284 57 40L 57 22C 57 21.447716 56.552284 21 56 21L 12 21C 11.447716 21 11 21.447716 11 22L 11 40C 11 40.552284 11.447716 41 12 41L 16.153999 41C 16.642818 40.999775 17.059834 40.646202 17.139999 40.164001Z"></path></g></g></g><g id="g-root-tx_producti_1hit7236zh3b4-stroke" data-item-order="0" transform="translate(387, 51)"></g><g id="g-root-tx_python_qwinej6zh3b8-stroke" data-item-order="0" transform="translate(63, 207)"></g><g id="g-root-tx_java_8id76zihvs-stroke" data-item-order="0" transform="translate(411, 207)"></g><g id="g-root-tx_chooseth_18f20or6zihos-stroke" data-item-order="0" transform="translate(63, 279)"></g></g></g></svg>